<svg xmlns="http://www.w3.org/2000/svg" viewBox="0 0 6020 1000"><path d="M713.3 995.6H447.2V616.1H274.9v379.5H2.3V16.4h272.6v365.3h172.3V16.4h266.1v979.2zm1220.3 4.4c272.6 0 495.1-226.8 495.1-502.7C2428.7 217 2206.2 0 1933.6 0c-275.9 0-415.5 200.7-449.3 282.4 0-121-121.1-266.1-261.7-266.1H767.9v979.3H1191c172.3 0 293.3-147.2 293.3-275.9 38.2 79.6 173.4 280.3 449.3 280.3zm-776.4-398c39.2 0 70.9 38.2 70.9 81.8 0 45.8-31.6 84-70.9 84H1022V602zm0-367.5c39.2 0 70.9 38.2 70.9 81.8s-31.6 81.8-70.9 81.8H1022V234.5zM1336 497.3c31.6-2.2 82.9-38.2 102.5-60-7.6 26.2-7.6 109.1 0 135.2-21.8-31.6-70.9-69.8-102.5-75.2zm349 0c0-137.9 112.1-249.5 250.2-248.6a248.05 248.05 0 01247 252.3c-2 136.7-112.5 246-248.6 246-137.4 0-248.6-111.2-248.6-249.7zm248.6 196.3c105.8 0 195.2-87.2 195.2-196.3s-89.4-195.2-195.2-195.2c-109.1 0-196.3 86.2-196.3 195.2s87.2 196.3 196.3 196.3z" fill="#fff" fill-rule="evenodd"/><path d="M3851 363C3845.5 125.7 3678 .1 3472.1.1c-113.1 0-214.6 37.9-284 111.4C3118.7 37.9 3017.2 0 2904.2 0c-206 0-373.6 125.8-378.9 363.4a8.08 8.08 0 00-.1 1.6v541a90 90 0 0090 90h85a15 15 0 0015-15V365h.1c3.6-117 86.8-179 188.9-179s185.3 62 188.9 179h.1v541a90 90 0 0090 90h85a15 15 0 0015-15V365h.1c3.6-117 86.8-179 188.9-179s185.3 62 188.9 179h.1v541a90 90 0 0090 90h85a15 15 0 0015-15V365a12.31 12.31 0 00-.2-2zM5765 16h-144.2a119.94 119.94 0 00-99.5 52.9l-159.4 236.4a52.41 52.41 0 01-87 0L5115.5 68.9A119.94 119.94 0 005016 16h-144.2a11.21 11.21 0 00-9.3 17.5l284.7 422.1a90.13 90.13 0 010 100.7l-284.7 422.1a11.22 11.22 0 009.3 17.5H5016a119.94 119.94 0 0099.5-52.9l159.4-236.4a52.41 52.41 0 0187 0L5521.3 943a119.94 119.94 0 0099.5 52.9H5765a11.21 11.21 0 009.3-17.5l-284.7-422.1a90.13 90.13 0 010-100.7l284.7-422.1A11.21 11.21 0 005765 16zm-968.8 0h-85a90 90 0 00-88 71c-75.8-57.5-170.4-87-273-87-248.9 0-450.7 173.2-450.7 500s201.8 500 450.7 500c101.9 0 195.9-29 271.4-85.8a90.1 90.1 0 0089.6 81.8h85a15 15 0 0015-15V31a15 15 0 00-15-15zm-446 797.9c-148.6 0-269.1-108.7-269.1-313.9s120.5-313.9 269.1-313.9 269.1 108.7 269.1 313.9-120.5 313.9-269.1 313.9zM5895.9 34.85h-28.3v85.2h-20.7v-85.2h-28.2v-19.8h77.2zm121.8 85.2h-20.6V52l-29.5 48.7h-2.4l-29.5-48.6V120H5915V15h21.3l30.1 49.6 30-49.6h21.3v105.1z" fill="#fff"/></svg>